<mxfile host="www.draw.io" modified="2023-09-15T19:05:01.558Z" agent="Mozilla/5.0 (Windows NT 10.0; Win64; x64) AppleWebKit/537.36 (KHTML, like Gecko) Chrome/116.0.0.0 Safari/537.36" etag="Ry4TXt5f__OZgHxmJK5T" version="21.7.5" type="device">
  <diagram name="Page-1" id="VKHc3iABEqhtPhi_z0bq">
    <mxGraphModel dx="1060" dy="1766" grid="1" gridSize="10" guides="1" tooltips="1" connect="1" arrows="1" fold="1" page="1" pageScale="1" pageWidth="850" pageHeight="1100" math="0" shadow="0">
      <root>
        <object label="" id="0">
          <mxCell />
        </object>
        <mxCell id="1" parent="0" />
        <mxCell id="vs-hBLlxjZv3izGMLUCD-24" value="" style="rounded=1;whiteSpace=wrap;html=1;strokeColor=#d79b00;fillColor=#ffe6cc;labelBackgroundColor=none;" vertex="1" parent="1">
          <mxGeometry x="200" y="-20" width="320" height="600" as="geometry" />
        </mxCell>
        <mxCell id="vs-hBLlxjZv3izGMLUCD-53" style="rounded=0;orthogonalLoop=1;jettySize=auto;html=1;exitX=0.5;exitY=0.5;exitDx=0;exitDy=0;exitPerimeter=0;entryX=0;entryY=0.5;entryDx=0;entryDy=0;strokeColor=#A8201A;fontColor=#143642;fillColor=#FAE5C7;" edge="1" parent="1" source="vs-hBLlxjZv3izGMLUCD-2" target="vs-hBLlxjZv3izGMLUCD-38">
          <mxGeometry relative="1" as="geometry" />
        </mxCell>
        <mxCell id="vs-hBLlxjZv3izGMLUCD-54" style="rounded=0;orthogonalLoop=1;jettySize=auto;html=1;exitX=0.5;exitY=0.5;exitDx=0;exitDy=0;exitPerimeter=0;entryX=0;entryY=0.5;entryDx=0;entryDy=0;strokeColor=#A8201A;fontColor=#143642;fillColor=#FAE5C7;" edge="1" parent="1" source="vs-hBLlxjZv3izGMLUCD-2" target="vs-hBLlxjZv3izGMLUCD-39">
          <mxGeometry relative="1" as="geometry" />
        </mxCell>
        <mxCell id="vs-hBLlxjZv3izGMLUCD-55" style="rounded=0;orthogonalLoop=1;jettySize=auto;html=1;exitX=0.5;exitY=0.5;exitDx=0;exitDy=0;exitPerimeter=0;entryX=0;entryY=0.5;entryDx=0;entryDy=0;strokeColor=#A8201A;fontColor=#143642;fillColor=#FAE5C7;" edge="1" parent="1" source="vs-hBLlxjZv3izGMLUCD-2" target="vs-hBLlxjZv3izGMLUCD-44">
          <mxGeometry relative="1" as="geometry" />
        </mxCell>
        <mxCell id="vs-hBLlxjZv3izGMLUCD-56" style="rounded=0;orthogonalLoop=1;jettySize=auto;html=1;exitX=0.5;exitY=0.5;exitDx=0;exitDy=0;exitPerimeter=0;entryX=0;entryY=0.5;entryDx=0;entryDy=0;strokeColor=#A8201A;fontColor=#143642;fillColor=#FAE5C7;" edge="1" parent="1" source="vs-hBLlxjZv3izGMLUCD-2" target="vs-hBLlxjZv3izGMLUCD-45">
          <mxGeometry relative="1" as="geometry" />
        </mxCell>
        <mxCell id="vs-hBLlxjZv3izGMLUCD-57" style="rounded=0;orthogonalLoop=1;jettySize=auto;html=1;exitX=0.5;exitY=0.5;exitDx=0;exitDy=0;exitPerimeter=0;entryX=0;entryY=0.5;entryDx=0;entryDy=0;strokeColor=#A8201A;fontColor=#143642;fillColor=#FAE5C7;" edge="1" parent="1" source="vs-hBLlxjZv3izGMLUCD-2" target="vs-hBLlxjZv3izGMLUCD-25">
          <mxGeometry relative="1" as="geometry" />
        </mxCell>
        <mxCell id="vs-hBLlxjZv3izGMLUCD-2" value="Traveller" style="shape=umlActor;verticalLabelPosition=bottom;verticalAlign=top;html=1;outlineConnect=0;labelBackgroundColor=none;fillColor=#FAE5C7;strokeColor=#0F8B8D;fontColor=#143642;" vertex="1" parent="1">
          <mxGeometry x="20" y="60" width="30" height="60" as="geometry" />
        </mxCell>
        <mxCell id="vs-hBLlxjZv3izGMLUCD-58" style="rounded=0;orthogonalLoop=1;jettySize=auto;html=1;exitX=0.5;exitY=0.5;exitDx=0;exitDy=0;exitPerimeter=0;entryX=0;entryY=0.5;entryDx=0;entryDy=0;strokeColor=#3333FF;fontColor=#143642;fillColor=#FAE5C7;" edge="1" parent="1" source="vs-hBLlxjZv3izGMLUCD-10" target="vs-hBLlxjZv3izGMLUCD-43">
          <mxGeometry relative="1" as="geometry" />
        </mxCell>
        <mxCell id="vs-hBLlxjZv3izGMLUCD-60" style="rounded=0;orthogonalLoop=1;jettySize=auto;html=1;exitX=0.5;exitY=0.5;exitDx=0;exitDy=0;exitPerimeter=0;entryX=0;entryY=0.5;entryDx=0;entryDy=0;strokeColor=#3333FF;fontColor=#143642;fillColor=#FAE5C7;" edge="1" parent="1" source="vs-hBLlxjZv3izGMLUCD-10" target="vs-hBLlxjZv3izGMLUCD-44">
          <mxGeometry relative="1" as="geometry" />
        </mxCell>
        <mxCell id="vs-hBLlxjZv3izGMLUCD-10" value="Admin" style="shape=umlActor;verticalLabelPosition=bottom;verticalAlign=top;html=1;outlineConnect=0;strokeColor=#0F8B8D;fontColor=#143642;fillColor=#FAE5C7;" vertex="1" parent="1">
          <mxGeometry x="20" y="230" width="30" height="60" as="geometry" />
        </mxCell>
        <mxCell id="vs-hBLlxjZv3izGMLUCD-61" style="rounded=0;orthogonalLoop=1;jettySize=auto;html=1;exitX=0.5;exitY=0.5;exitDx=0;exitDy=0;exitPerimeter=0;entryX=0;entryY=0.5;entryDx=0;entryDy=0;strokeColor=#00FF00;fontColor=#143642;fillColor=#FAE5C7;" edge="1" parent="1" source="vs-hBLlxjZv3izGMLUCD-18" target="vs-hBLlxjZv3izGMLUCD-42">
          <mxGeometry relative="1" as="geometry" />
        </mxCell>
        <mxCell id="vs-hBLlxjZv3izGMLUCD-62" style="rounded=0;orthogonalLoop=1;jettySize=auto;html=1;exitX=0.5;exitY=0.5;exitDx=0;exitDy=0;exitPerimeter=0;entryX=0;entryY=0.5;entryDx=0;entryDy=0;strokeColor=#00FF00;fontColor=#143642;fillColor=#FAE5C7;" edge="1" parent="1" source="vs-hBLlxjZv3izGMLUCD-18" target="vs-hBLlxjZv3izGMLUCD-25">
          <mxGeometry relative="1" as="geometry" />
        </mxCell>
        <mxCell id="vs-hBLlxjZv3izGMLUCD-18" value="Help Desk" style="shape=umlActor;verticalLabelPosition=bottom;verticalAlign=top;html=1;outlineConnect=0;strokeColor=#0F8B8D;fontColor=#143642;fillColor=#FAE5C7;" vertex="1" parent="1">
          <mxGeometry x="20" y="430" width="30" height="60" as="geometry" />
        </mxCell>
        <mxCell id="vs-hBLlxjZv3izGMLUCD-63" style="rounded=0;orthogonalLoop=1;jettySize=auto;html=1;exitX=0.5;exitY=0.5;exitDx=0;exitDy=0;exitPerimeter=0;entryX=1;entryY=0.5;entryDx=0;entryDy=0;strokeColor=#67AB9F;fontColor=#143642;fillColor=#FAE5C7;" edge="1" parent="1" source="vs-hBLlxjZv3izGMLUCD-20" target="vs-hBLlxjZv3izGMLUCD-40">
          <mxGeometry relative="1" as="geometry" />
        </mxCell>
        <mxCell id="vs-hBLlxjZv3izGMLUCD-64" style="rounded=0;orthogonalLoop=1;jettySize=auto;html=1;exitX=0.5;exitY=0.5;exitDx=0;exitDy=0;exitPerimeter=0;entryX=1;entryY=0.5;entryDx=0;entryDy=0;strokeColor=#67AB9F;fontColor=#143642;fillColor=#FAE5C7;" edge="1" parent="1" source="vs-hBLlxjZv3izGMLUCD-20" target="vs-hBLlxjZv3izGMLUCD-25">
          <mxGeometry relative="1" as="geometry" />
        </mxCell>
        <mxCell id="vs-hBLlxjZv3izGMLUCD-20" value="Transport Manager" style="shape=umlActor;verticalLabelPosition=bottom;verticalAlign=top;html=1;outlineConnect=0;strokeColor=#0F8B8D;fontColor=#143642;fillColor=#FAE5C7;" vertex="1" parent="1">
          <mxGeometry x="710" y="50" width="30" height="60" as="geometry" />
        </mxCell>
        <mxCell id="vs-hBLlxjZv3izGMLUCD-65" style="rounded=0;orthogonalLoop=1;jettySize=auto;html=1;exitX=0.5;exitY=0.5;exitDx=0;exitDy=0;exitPerimeter=0;entryX=1;entryY=0.5;entryDx=0;entryDy=0;strokeColor=#EA6B66;fontColor=#143642;fillColor=#FAE5C7;" edge="1" parent="1" source="vs-hBLlxjZv3izGMLUCD-21" target="vs-hBLlxjZv3izGMLUCD-25">
          <mxGeometry relative="1" as="geometry" />
        </mxCell>
        <mxCell id="vs-hBLlxjZv3izGMLUCD-66" style="rounded=0;orthogonalLoop=1;jettySize=auto;html=1;exitX=0.5;exitY=0.5;exitDx=0;exitDy=0;exitPerimeter=0;entryX=1;entryY=0.5;entryDx=0;entryDy=0;strokeColor=#EA6B66;fontColor=#143642;fillColor=#FAE5C7;" edge="1" parent="1" source="vs-hBLlxjZv3izGMLUCD-21" target="vs-hBLlxjZv3izGMLUCD-41">
          <mxGeometry relative="1" as="geometry" />
        </mxCell>
        <mxCell id="vs-hBLlxjZv3izGMLUCD-21" value="Accomodation Manager" style="shape=umlActor;verticalLabelPosition=bottom;verticalAlign=top;html=1;outlineConnect=0;strokeColor=#0F8B8D;fontColor=#143642;fillColor=#FAE5C7;" vertex="1" parent="1">
          <mxGeometry x="710" y="230" width="30" height="60" as="geometry" />
        </mxCell>
        <mxCell id="vs-hBLlxjZv3izGMLUCD-67" style="rounded=0;orthogonalLoop=1;jettySize=auto;html=1;exitX=0.5;exitY=0.5;exitDx=0;exitDy=0;exitPerimeter=0;entryX=1;entryY=0.5;entryDx=0;entryDy=0;strokeColor=#33001A;fontColor=#143642;fillColor=#FAE5C7;" edge="1" parent="1" source="vs-hBLlxjZv3izGMLUCD-22" target="vs-hBLlxjZv3izGMLUCD-25">
          <mxGeometry relative="1" as="geometry" />
        </mxCell>
        <mxCell id="vs-hBLlxjZv3izGMLUCD-68" style="rounded=0;orthogonalLoop=1;jettySize=auto;html=1;exitX=0.5;exitY=0.5;exitDx=0;exitDy=0;exitPerimeter=0;entryX=1;entryY=0.5;entryDx=0;entryDy=0;strokeColor=#33001A;fontColor=#143642;fillColor=#FAE5C7;" edge="1" parent="1" source="vs-hBLlxjZv3izGMLUCD-22" target="vs-hBLlxjZv3izGMLUCD-42">
          <mxGeometry relative="1" as="geometry" />
        </mxCell>
        <mxCell id="vs-hBLlxjZv3izGMLUCD-69" style="rounded=0;orthogonalLoop=1;jettySize=auto;html=1;exitX=0.5;exitY=0.5;exitDx=0;exitDy=0;exitPerimeter=0;entryX=1;entryY=0.5;entryDx=0;entryDy=0;strokeColor=#33001A;fontColor=#143642;fillColor=#FAE5C7;" edge="1" parent="1" source="vs-hBLlxjZv3izGMLUCD-22" target="vs-hBLlxjZv3izGMLUCD-44">
          <mxGeometry relative="1" as="geometry" />
        </mxCell>
        <mxCell id="vs-hBLlxjZv3izGMLUCD-70" style="rounded=0;orthogonalLoop=1;jettySize=auto;html=1;exitX=0.5;exitY=0.5;exitDx=0;exitDy=0;exitPerimeter=0;entryX=1;entryY=0.5;entryDx=0;entryDy=0;strokeColor=#33001A;fontColor=#143642;fillColor=#FAE5C7;" edge="1" parent="1" source="vs-hBLlxjZv3izGMLUCD-22" target="vs-hBLlxjZv3izGMLUCD-39">
          <mxGeometry relative="1" as="geometry" />
        </mxCell>
        <mxCell id="vs-hBLlxjZv3izGMLUCD-22" value="Travel Agency" style="shape=umlActor;verticalLabelPosition=bottom;verticalAlign=top;html=1;outlineConnect=0;strokeColor=#0F8B8D;fontColor=#143642;fillColor=#FAE5C7;" vertex="1" parent="1">
          <mxGeometry x="710" y="410" width="30" height="60" as="geometry" />
        </mxCell>
        <mxCell id="vs-hBLlxjZv3izGMLUCD-48" style="edgeStyle=orthogonalEdgeStyle;rounded=0;orthogonalLoop=1;jettySize=auto;html=1;exitX=0.5;exitY=0;exitDx=0;exitDy=0;strokeColor=#A8201A;fontColor=#143642;fillColor=#FAE5C7;" edge="1" parent="1" source="vs-hBLlxjZv3izGMLUCD-24">
          <mxGeometry relative="1" as="geometry">
            <mxPoint x="360" y="20" as="targetPoint" />
          </mxGeometry>
        </mxCell>
        <mxCell id="vs-hBLlxjZv3izGMLUCD-25" value="&lt;div style=&quot;border-color: var(--border-color);&quot;&gt;&lt;div style=&quot;border-color: var(--border-color);&quot;&gt;Sign up&lt;/div&gt;&lt;/div&gt;" style="ellipse;whiteSpace=wrap;html=1;strokeColor=#0F8B8D;fontColor=#143642;fillColor=#FAE5C7;" vertex="1" parent="1">
          <mxGeometry x="290" y="40" width="130" height="50" as="geometry" />
        </mxCell>
        <mxCell id="vs-hBLlxjZv3izGMLUCD-38" value="&lt;div style=&quot;border-color: var(--border-color);&quot;&gt;Mail connector&lt;/div&gt;" style="ellipse;whiteSpace=wrap;html=1;strokeColor=#0F8B8D;fontColor=#143642;fillColor=#FAE5C7;" vertex="1" parent="1">
          <mxGeometry x="290" y="100" width="130" height="50" as="geometry" />
        </mxCell>
        <mxCell id="vs-hBLlxjZv3izGMLUCD-39" value="&lt;div style=&quot;border-color: var(--border-color);&quot;&gt;&lt;div style=&quot;border-color: var(--border-color);&quot;&gt;Trip Groupings&lt;/div&gt;&lt;/div&gt;" style="ellipse;whiteSpace=wrap;html=1;strokeColor=#0F8B8D;fontColor=#143642;fillColor=#FAE5C7;" vertex="1" parent="1">
          <mxGeometry x="290" y="160" width="130" height="50" as="geometry" />
        </mxCell>
        <mxCell id="vs-hBLlxjZv3izGMLUCD-40" value="&lt;div style=&quot;border-color: var(--border-color);&quot;&gt;Transport Booking&lt;/div&gt;" style="ellipse;whiteSpace=wrap;html=1;strokeColor=#0F8B8D;fontColor=#143642;fillColor=#FAE5C7;" vertex="1" parent="1">
          <mxGeometry x="290" y="220" width="130" height="50" as="geometry" />
        </mxCell>
        <mxCell id="vs-hBLlxjZv3izGMLUCD-41" value="&lt;div style=&quot;border-color: var(--border-color);&quot;&gt;&lt;div style=&quot;border-color: var(--border-color);&quot;&gt;Hotel booking&lt;/div&gt;&lt;/div&gt;" style="ellipse;whiteSpace=wrap;html=1;strokeColor=#0F8B8D;fontColor=#143642;fillColor=#FAE5C7;" vertex="1" parent="1">
          <mxGeometry x="290" y="280" width="130" height="50" as="geometry" />
        </mxCell>
        <mxCell id="vs-hBLlxjZv3izGMLUCD-42" value="&lt;div style=&quot;border-color: var(--border-color);&quot;&gt;Assistance&lt;/div&gt;" style="ellipse;whiteSpace=wrap;html=1;strokeColor=#0F8B8D;fontColor=#143642;fillColor=#FAE5C7;" vertex="1" parent="1">
          <mxGeometry x="290" y="340" width="130" height="50" as="geometry" />
        </mxCell>
        <mxCell id="vs-hBLlxjZv3izGMLUCD-43" value="&lt;div style=&quot;border-color: var(--border-color);&quot;&gt;Analytics&lt;/div&gt;" style="ellipse;whiteSpace=wrap;html=1;strokeColor=#0F8B8D;fontColor=#143642;fillColor=#FAE5C7;" vertex="1" parent="1">
          <mxGeometry x="290" y="400" width="130" height="50" as="geometry" />
        </mxCell>
        <mxCell id="vs-hBLlxjZv3izGMLUCD-44" value="&lt;div style=&quot;border-color: var(--border-color);&quot;&gt;&lt;div style=&quot;border-color: var(--border-color);&quot;&gt;Summary Reports&lt;/div&gt;&lt;/div&gt;" style="ellipse;whiteSpace=wrap;html=1;strokeColor=#0F8B8D;fontColor=#143642;fillColor=#FAE5C7;" vertex="1" parent="1">
          <mxGeometry x="290" y="460" width="130" height="50" as="geometry" />
        </mxCell>
        <mxCell id="vs-hBLlxjZv3izGMLUCD-45" value="&lt;div style=&quot;border-color: var(--border-color);&quot;&gt;&lt;div style=&quot;border-color: var(--border-color);&quot;&gt;Trip sharing&lt;/div&gt;&lt;/div&gt;" style="ellipse;whiteSpace=wrap;html=1;strokeColor=#0F8B8D;fontColor=#143642;fillColor=#FAE5C7;" vertex="1" parent="1">
          <mxGeometry x="290" y="520" width="130" height="50" as="geometry" />
        </mxCell>
        <mxCell id="vs-hBLlxjZv3izGMLUCD-49" value="&lt;h1&gt;&lt;b&gt;Road Warrior&lt;/b&gt;&lt;/h1&gt;" style="text;html=1;strokeColor=#b85450;fillColor=#f8cecc;align=center;verticalAlign=middle;whiteSpace=wrap;rounded=0;fontColor=#000000;" vertex="1" parent="1">
          <mxGeometry x="277.5" y="-10" width="165" height="30" as="geometry" />
        </mxCell>
      </root>
    </mxGraphModel>
  </diagram>
</mxfile>
